Coordinates
version=1
nRows=11
nColumns=46
inDegrees=yes

Units are S.I. units (second, meters, Newtons, ...)
Angles are in degrees.

endheader
time	pelvis_tilt	pelvis_list	pelvis_rotation	pelvis_tx	pelvis_ty	pelvis_tz	bb_angle	bb_tx	bb_ty	bb_tz	hip_flexion_r	hip_adduction_r	hip_rotation_r	knee_angle_r	knee_angle_r_beta	ankle_angle_r	subtalar_angle_r	mtp_angle_r	crank_angle_r	hip_flexion_l	hip_adduction_l	hip_rotation_l	knee_angle_l	knee_angle_l_beta	ankle_angle_l	subtalar_angle_l	mtp_angle_l	crank_angle_l	lumbar_extension	lumbar_bending	lumbar_rotation	arm_flex_r	arm_add_r	arm_rot_r	elbow_flex_r	pro_sup_r	wrist_flex_r	wrist_dev_r	arm_flex_l	arm_add_l	arm_rot_l	elbow_flex_l	pro_sup_l	wrist_flex_l	wrist_dev_l
      7.50500000	    -16.88480575	     -5.66632034	     -9.78575767	      0.15643853	      1.16087532	     -0.25550596	      0.00000000	      0.50000000	      0.00000000	      0.25000000	     96.59578871	      0.95105273	     -5.57835586	    104.33127640	      1.82092429	    -18.03234674	     -9.01070565	      0.00000000	      0.00000000	     35.26450433	    -15.02260939	     -9.21332263	     39.57100024	      0.69064424	     15.16412307	      4.38223649	      0.00000000	      0.00000000	    -61.01308754	      5.51021784	     14.49796644	     89.85525215	     -9.46804739	     31.96220645	     53.15984285	     23.96963203	      0.00000000	      0.00000000	     89.75666935	    -10.78618518	     38.56019365	     41.98317876	     24.02118777	      0.00000000	      0.00000000
      7.51000000	    -17.20087968	     -5.42959613	     -9.85852709	      0.15525918	      1.16165496	     -0.25528640	      0.00000000	      0.50000000	      0.00000000	      0.25000000	     96.31435375	      1.16461492	     -5.37728791	    102.91595446	      1.79622226	    -16.05640027	     -8.21056512	      0.00000000	      0.00000000	     36.48636322	    -15.09410282	     -8.99062255	     42.04865140	      0.73388741	     14.94624706	      3.94689330	      0.00000000	      0.00000000	    -61.04743872	      5.29721277	     14.28712673	     89.85645437	     -9.17669274	     31.14433293	     53.82914783	     23.55960856	      0.00000000	      0.00000000	     89.75232893	    -11.09589435	     37.14392585	     42.94661784	     24.06743807	      0.00000000	      0.00000000
      7.51500000	    -17.55475997	     -5.22478856	     -9.87451948	      0.15410012	      1.16227472	     -0.25502331	      0.00000000	      0.50000000	      0.00000000	      0.25000000	     95.92389361	      1.37602626	     -5.18039185	    101.38443211	      1.76949215	    -14.03988554	     -7.62591276	      0.00000000	      0.00000000	     37.89966574	    -15.16630757	     -8.58741487	     44.70533609	      0.78025531	     14.55398563	      3.33629732	      0.00000000	      0.00000000	    -60.97133860	      5.14852312	     14.12957848	     89.85874770	     -9.11927079	     30.87163860	     54.27428025	     23.49101982	      0.00000000	      0.00000000	     89.75459440	    -11.24664152	     36.70441234	     43.42660481	     24.11722984	      0.00000000	      0.00000000
      7.52000000	    -17.90234768	     -5.01482267	     -9.93849907	      0.15294441	      1.16282158	     -0.25449204	      0.00000000	      0.50000000	      0.00000000	      0.25000000	     95.39571875	      1.67141198	     -4.90293938	     99.72306974	      1.74049591	    -11.77121010	     -6.74003088	      0.00000000	      0.00000000	     39.39479378	    -15.29148276	     -8.20410373	     47.47183558	      0.82853983	     14.06968563	      2.84034160	      0.00000000	      0.00000000	    -60.96599181	      4.93120299	     13.92383655	     89.86052638	     -8.99973839	     30.39904990	     54.92842056	     23.52878179	      0.00000000	      0.00000000	     89.75123012	    -11.53168010	     35.91900527	     44.27642192	     24.31238160	      0.00000000	      0.00000000
      7.52500000	    -18.18997679	     -4.69858889	     -9.93278160	      0.15183800	      1.16320708	     -0.25410273	      0.00000000	      0.50000000	      0.00000000	      0.25000000	     94.73291443	      1.88539446	     -4.49562590	     98.02538390	      1.71086570	     -9.38931428	     -5.79843364	      0.00000000	      0.00000000	     40.90240420	    -15.21614295	     -7.72299926	     50.25525279	      0.87711963	     13.45863298	      2.20456767	      0.00000000	      0.00000000	    -60.96709356	      4.65179278	     13.54178446	     89.86228416	     -8.88126569	     29.90842909	     55.50666852	     23.60277651	      0.00000000	      0.00000000	     89.74867770	    -11.79492241	     35.11323111	     45.10029180	     24.65274835	      0.00000000	      0.00000000
      7.53000000	    -18.48470862	     -4.49800999	     -9.97367219	      0.15080077	      1.16362863	     -0.25334158	      0.00000000	      0.50000000	      0.00000000	      0.25000000	     93.90150646	      2.23902592	     -4.17808777	     96.15189198	      1.67816710	     -7.15455999	     -5.26758040	      0.00000000	      0.00000000	     42.51734564	    -15.36715278	     -7.29903865	     53.15395433	      0.92771151	     12.69311399	      1.64826838	      0.00000000	      0.00000000	    -60.95611425	      4.38491291	     13.29076224	     89.86548783	     -8.81949526	     29.69805861	     55.93158088	     23.56834267	      0.00000000	      0.00000000	     89.75336178	    -12.00288872	     34.76803405	     45.60936425	     24.72385567	      0.00000000	      0.00000000
      7.53500000	    -18.61855021	     -4.08427959	     -9.89376487	      0.14983612	      1.16371116	     -0.25259515	      0.00000000	      0.50000000	      0.00000000	      0.25000000	     92.94591111	      2.37650678	     -3.71485914	     94.36535126	      1.64698608	     -5.03358245	     -4.87925504	      0.00000000	      0.00000000	     44.03596877	    -15.22187527	     -6.89888050	     56.07688180	      0.97872622	     11.83083422	      1.21529434	      0.00000000	      0.00000000	    -60.96223096	      4.03132443	     12.80765359	     89.86682254	     -8.87982396	     29.46017445	     56.28727234	     23.56781303	      0.00000000	      0.00000000	     89.75674854	    -12.22699328	     34.39536319	     46.10825072	     24.80258324	      0.00000000	      0.00000000
      7.54000000	    -19.02224492	     -4.00129278	     -9.67990549	      0.14870918	      1.16332800	     -0.25241363	      0.00000000	      0.50000000	      0.00000000	      0.25000000	     92.01933769	      2.36961861	     -3.51211009	     92.33860738	      1.61161273	     -2.38833121	     -3.34535839	      0.00000000	      0.00000000	     46.03936920	    -15.14363120	     -5.87673131	     59.06176666	      1.03082229	     10.81163425	      0.52137764	      0.00000000	      0.00000000	    -60.88121962	      4.05458561	     12.46308359	     89.86758013	     -8.75577899	     29.13205283	     56.94960879	     23.52090000	      0.00000000	      0.00000000	     89.74349059	    -12.66578318	     33.66603948	     47.27571601	     24.97311851	      0.00000000	      0.00000000
      7.54500000	    -19.15555551	     -3.62679600	     -9.30510992	      0.14778075	      1.16310020	     -0.25188002	      0.00000000	      0.50000000	      0.00000000	      0.25000000	     90.87674279	      2.24549018	     -3.02272573	     90.41679922	      1.57807085	     -0.02824312	     -2.50089811	      0.00000000	      0.00000000	     47.72848778	    -14.71120620	     -5.10411721	     61.88424682	      1.08008386	      9.59688884	     -0.13746091	      0.00000000	      0.00000000	    -60.96001610	      3.90399209	     11.71265880	     89.86965321	     -8.68656011	     28.82490075	     57.50944412	     23.42440683	      0.00000000	      0.00000000	     89.74078136	    -13.14504982	     32.97603307	     48.37322894	     25.14123492	      0.00000000	      0.00000000
      7.55000000	    -19.23202287	     -3.46460255	     -9.25762234	      0.14719966	      1.16322129	     -0.25157609	      0.00000000	      0.50000000	      0.00000000	      0.25000000	     89.44149608	      2.41470319	     -2.77336569	     88.21342162	      1.53961465	      2.08266187	     -2.05652857	      0.00000000	      0.00000000	     49.29434938	    -14.68690103	     -4.56276440	     64.70752316	      1.12935933	      8.34345729	     -0.74882228	      0.00000000	      0.00000000	    -61.09708671	      3.67094847	     11.29323649	     89.86997137	     -8.60953680	     28.64064354	     57.86925600	     23.37627236	      0.00000000	      0.00000000	     89.73360351	    -13.48182557	     32.49250901	     49.05354800	     25.25747645	      0.00000000	      0.00000000
      7.55500000	    -19.22515175	     -3.08198318	     -8.88995675	      0.14652144	      1.16294029	     -0.25137674	      0.00000000	      0.50000000	      0.00000000	      0.25000000	     87.99223182	      2.24204642	     -2.34554164	     86.07455810	      1.50228444	      4.01529426	     -1.70450187	      0.00000000	      0.00000000	     50.88585131	    -14.20661203	     -3.94791140	     67.47814772	      1.17771585	      6.91313508	     -1.46372892	      0.00000000	      0.00000000	    -61.29620794	      3.48327291	     10.42007457	     89.87139408	     -8.44808630	     28.26970408	     58.42335719	     23.12597954	      0.00000000	      0.00000000	     89.72216079	    -14.03550156	     31.65621047	     50.34546405	     25.49079466	      0.00000000	      0.00000000
